<svg xmlns="http://www.w3.org/2000/svg" viewBox="0 0 32.45 36.78"><defs><style>.cls-1{fill:#ffc145;}</style></defs><g id="Layer_2" data-name="Layer 2"><g id="Layer_1-2" data-name="Layer 1"><path class="cls-1" d="M27.69,36.78H4.75a.92.92,0,0,1-.88-.69L0,20.71a.91.91,0,0,1,.88-1.13,18.25,18.25,0,0,0,7.58,2.23c5.36.31,8-2.14,14.38-2.74a29.21,29.21,0,0,1,8.67.51,1,1,0,0,1,.72.35.92.92,0,0,1,.16.78L28.58,36.09A.92.92,0,0,1,27.69,36.78Z"/><path class="cls-1" d="M4.75,0H27.69a.91.91,0,0,1,.89.69l3.84,15.37a.92.92,0,0,1-.88,1.14,20.64,20.64,0,0,0-6.67-1.44c-6.15-.27-9,2.48-15.29,2.73A24.22,24.22,0,0,1,.91,17.2a1,1,0,0,1-.72-.35A1,1,0,0,1,0,16.06Z"/></g></g></svg>